<?xml version="1.0" encoding="utf-8"?>
<!-- Generator: Adobe Illustrator 21.1.0, SVG Export Plug-In . SVG Version: 6.00 Build 0)  -->
<svg version="1.1" id="Layer_1" xmlns="http://www.w3.org/2000/svg" xmlns:xlink="http://www.w3.org/1999/xlink" x="0px" y="0px"
	 viewBox="0 0 375 334.6" style="enable-background:new 0 0 375 334.6;" xml:space="preserve">
<g>
	<path d="M94,138.6c-0.5-40.5-16-73-39.5-73C48,65.6,42,70.1,40,81.1c-0.5,2-1.5,3-2.5,4c-2,1-6,2.5-9.5,2.5
		c-12.5,0-21.5-8.5-21.5-21c0-12,11-25.5,30-25.5c46.5,0,76.5,52,78.5,95.5h1c22,0,45,6.5,61.5,18l1-1c-18-15-31-36.5-31-56.5
		c0-21.5,20-38,47-38c6.5,0,23,1.5,30,1.5c14,0,36.5-8.5,36.5-32c0-7.5-3.5-15.5-13-23c-4.5-3.5-1-6,2.5-5.5
		c24,3.5,46.5,25,46.5,55.5c0,39.5-31,51.5-74,72.5c-15.5,7.5-18.5,18-18.5,25.5c0,4,1,6,2,8c14.5-17,33.5-23,49-23
		c22,0,41.5,16,50.5,24c17,15.5,26.5,17.5,32.5,17.5c17.5,0,24.5-9.5,29.5-18.5c2-3.5,5-3.5,6-0.5c0.5,1.5,1,4,1,9.5
		c0,29-27,67-66.5,67c-21,0-38.5-5.5-68.5-35c-17-16-26.5-25.5-38-25.5c-3,2-5,6.5-5,11.5c0,13,10.5,26.5,24,46.5
		c18,26,25,36.5,25,53.5c0,22-21.5,46-44,46c-1.5,0-3.5,0-8.5-1c-4.5-1-4.5-3.5-1-6c5.5-3.5,14-10.5,14-20.5c0-13-6-17.5-34.5-35
		c-15.5-9.5-37.5-26.5-37.5-54c0-21,18.5-41,41-52c-12.5-6.5-32-12-54.5-12c-2.5,0-5,0-6.5,0.5c-4.5,56.5-41.5,90-87,98.5
		c1.5,23.5,13,38,20,42c5.5,3,12.5,2.5,17,2.5c1.5,1,1.5,4,1,5.5c-9,8.5-22,17-34,17c-4.5,0-9-3-12.5-7.5c-5.5-7-19-30.5-19-65.5
		C0,200.1,30,148.6,94,138.6z M75.5,208.6c10.5-15,16-33,18-51c-20,4-36.5,14-48,28c-11.5,14.5-18,33-18.5,56
		C49.5,235.1,65,223.1,75.5,208.6z"/>
</g>
</svg>
