<svg id="Layer_1" data-name="Layer 1" xmlns="http://www.w3.org/2000/svg" viewBox="0 0 489.26 96.17"><defs><style>.cls-1{fill:#231f20;}</style></defs><title>logotype</title><path class="cls-1" d="M28,3.44q1.31,0,2.85-.06t2.91-.06q1.36,0,2.37-.06c.67,0,1.13-.06,1.37-.06q15.32,0,22.68,5t7.36,17.1q0,12-7.3,17t-22.74,5H34.19q-1.78,0-3.68-.12V69.57H41.08v6.89H0V69.57H10.57V10.33H0V3.44Zm9.5,5.82q-2,0-3.8.12t-3.21.36V40.6a59.6,59.6,0,0,0,7,.36,21.74,21.74,0,0,0,4.39-.36,8.5,8.5,0,0,0,1.66-.36q.47-1.66.95-3.8.36-1.9.65-4.69a61.05,61.05,0,0,0,.3-6.35,64.18,64.18,0,0,0-.3-6.53Q44.88,16,44.52,14q-.48-2.25-.95-4-.71-.12-1.66-.36t-2-.24A23.63,23.63,0,0,0,37.52,9.26Z"/><path class="cls-1" d="M95,22.32a39.34,39.34,0,0,1,10.8,1.25,14.16,14.16,0,0,1,10.57,11.16,47.91,47.91,0,0,1,1.07,11q0,2-.12,3.5t-.24,2.43q-.12,1.19-.24,1.78H87.5q.12,4,.48,7.3t.71,5.64q.47,2.85,1,5a2.76,2.76,0,0,0,1.07.36,12.65,12.65,0,0,0,1.72.18q1.13.06,2.91.06a36.54,36.54,0,0,0,5.64-.42,17.15,17.15,0,0,0,4.69-1.37,7.12,7.12,0,0,0,4.27-6.89h6.41q0,5-2.2,7.84a14.24,14.24,0,0,1-5.46,4.33,21.85,21.85,0,0,1-7.06,1.84q-3.8.36-7.12.36a44.05,44.05,0,0,1-12.29-1.48A18.24,18.24,0,0,1,74,71.41a19.27,19.27,0,0,1-4.57-8.55A50.13,50.13,0,0,1,68,50,57,57,0,0,1,69.27,37.1a18.26,18.26,0,0,1,4.33-8.55,17.86,17.86,0,0,1,8.25-4.75A48.51,48.51,0,0,1,95,22.32Zm-5.34,6.06Q89,31,88.57,34.07q-.36,2.73-.71,6.35t-.36,7.9H99q-.24-5-.59-8.73t-.83-6.23a41.27,41.27,0,0,0-1.07-5,6.14,6.14,0,0,1-.83-.36c-.32-.08-.69-.16-1.13-.24a8.51,8.51,0,0,0-1.48-.12,7.49,7.49,0,0,0-1.42.12L90.59,28A4.55,4.55,0,0,1,89.64,28.38Z"/><path class="cls-1" d="M152.2,3.44h7L178,0V70.52h1.54a19.11,19.11,0,0,0,2.14-.12l2.61-.24v5.7q-2.14.36-4.16.59-1.66.24-3.56.36t-3.09.12q-5.82,0-8.79-2.14a13.68,13.68,0,0,1-4.27-4.63,25.26,25.26,0,0,1-7.78,5.34,22.41,22.41,0,0,1-9.08,1.9,23.69,23.69,0,0,1-8.67-1.48,14.72,14.72,0,0,1-6.35-4.75,22.47,22.47,0,0,1-3.86-8.55,53.81,53.81,0,0,1-1.31-12.76A50.16,50.16,0,0,1,124.78,37a18.41,18.41,0,0,1,4.75-8.55,19.09,19.09,0,0,1,8.55-4.69A50,50,0,0,1,151,22.32a35.7,35.7,0,0,1,4.16.24l4,.47V9.38h-7ZM145,71a13.65,13.65,0,0,0,7.66-2.49,26.79,26.79,0,0,0,6.59-6.29V28.85A28.51,28.51,0,0,0,155,28a30.15,30.15,0,0,0-4-.3,24.6,24.6,0,0,0-2.61.12l-1.9.24q-1,.24-1.54.36-.6,2.85-1.07,6.17-.48,2.85-.77,6.77t-.3,8.55q0,5.7.3,9.68a64.46,64.46,0,0,0,.77,6.59A30.61,30.61,0,0,0,145,71Z"/><path class="cls-1" d="M235.07,70.52h1.54a19.12,19.12,0,0,0,2.14-.12l2.61-.24v5.7q-2.14.36-4.16.59-1.66.24-3.56.36t-3.09.12q-5.82,0-8.79-2.14a13.68,13.68,0,0,1-4.27-4.63,21,21,0,0,1-6,5.28,15.24,15.24,0,0,1-7.78,2q-8.08,0-12-3t-3.92-10.51q0-2.61.06-5a38.82,38.82,0,0,1,.3-4.16q.24-2.14.48-3.8l27.54-6.77q-.12-3.44-.24-6.35t-.24-4.93q-.24-2.37-.36-4.27a7.87,7.87,0,0,0-1.07-.24q-.6-.12-1.78-.24T209.67,28q-1.07,0-2,.06t-1.9.18a32,32,0,0,1-1.19,4,14,14,0,0,1-2.61,4.39,15.11,15.11,0,0,1-4.69,3.56,16.28,16.28,0,0,1-7.42,1.48V23.75l7.72-.71,7.36-.47q3.92-.24,7.6-.24a45,45,0,0,1,12.17,1.31,12.29,12.29,0,0,1,6.77,4.51,18.2,18.2,0,0,1,3,8.55,112.87,112.87,0,0,1,.65,13.3ZM207.53,71a9.36,9.36,0,0,0,4.57-3,35.75,35.75,0,0,0,4.21-5.88V49.51l-9,2.49q-.24,1.9-.36,3.86t-.12,3.86q0,2.38.06,4.39a28.93,28.93,0,0,0,.3,3.56Q207.29,69.45,207.53,71Z"/><path class="cls-1" d="M285.53,90h4.75q3.92,0,4.93-.77a3.17,3.17,0,0,0,1-2.67V84.77H265.7a44.17,44.17,0,0,1-9.62-.89,15.4,15.4,0,0,1-6.23-2.73,10.19,10.19,0,0,1-3.32-4.75,21.24,21.24,0,0,1-1-6.95,15.45,15.45,0,0,1,.83-5.34,13.32,13.32,0,0,1,2.08-3.8,11.52,11.52,0,0,1,2.73-2.49A14.35,14.35,0,0,1,254,56.4a12.12,12.12,0,0,1-5.4-5.88,24.08,24.08,0,0,1-1.6-9.44,24.79,24.79,0,0,1,1.37-8.73,12.29,12.29,0,0,1,4.45-5.82,21,21,0,0,1,8.07-3.21,63,63,0,0,1,12.23-1h14.25a18.36,18.36,0,0,0,4.69-.47,4.87,4.87,0,0,0,2.55-1.48,4.71,4.71,0,0,0,1-2.49,31.09,31.09,0,0,0,.18-3.62h6.41q0,6.41-2,9.26a10.25,10.25,0,0,1-5.82,3.92q4.87,4.39,4.87,13.65a24.7,24.7,0,0,1-1.37,8.79,12.34,12.34,0,0,1-4.45,5.76,21,21,0,0,1-8.07,3.21,62.82,62.82,0,0,1-12.23,1,64.15,64.15,0,0,1-12.82-1.07,18.27,18.27,0,0,0-2.91,1,13.37,13.37,0,0,0-2.79,1.66,9.07,9.07,0,0,0-2.14,2.32,5.41,5.41,0,0,0-.83,3H286q9.85,0,14,3.62t4.1,11.22a31.25,31.25,0,0,1-.59,6.53,10.38,10.38,0,0,1-2.08,4.51,8.92,8.92,0,0,1-4.21,2.67,23,23,0,0,1-7,.89h-4.63ZM266.42,41.08q0,2.85.24,5.22a37.11,37.11,0,0,0,.59,4,36.27,36.27,0,0,0,.83,3.68l1.31.24a11.57,11.57,0,0,0,1.48.18q.89.06,2.08.06t2.14-.06a11.84,11.84,0,0,0,1.54-.18l1.31-.24q.36-1.66.83-3.68.24-1.66.53-4a42.52,42.52,0,0,0,.3-5.22,43,43,0,0,0-.3-5.16q-.3-2.43-.53-4.1-.48-2-.83-3.68l-1.42-.24a12.46,12.46,0,0,0-1.54-.18c-.63,0-1.31-.06-2-.06s-1.48,0-2.08.06a12.23,12.23,0,0,0-1.48.18l-1.31.24a36.47,36.47,0,0,0-.83,3.68,37.14,37.14,0,0,0-.59,4.1Q266.41,38.35,266.42,41.08Z"/><path class="cls-1" d="M304.05,50a50.13,50.13,0,0,1,1.42-12.88,18.41,18.41,0,0,1,4.75-8.55,19.56,19.56,0,0,1,8.55-4.75,56.9,56.9,0,0,1,25.82,0,19.58,19.58,0,0,1,8.61,4.75A18.42,18.42,0,0,1,358,37.1,50.13,50.13,0,0,1,359.38,50,50.11,50.11,0,0,1,358,62.87a18.4,18.4,0,0,1-4.75,8.55,19.55,19.55,0,0,1-8.61,4.75,56.9,56.9,0,0,1-25.82,0,19.53,19.53,0,0,1-8.55-4.75,18.39,18.39,0,0,1-4.75-8.55A50.11,50.11,0,0,1,304.05,50Zm19.47,0q0,4.63.3,8.61t.77,6.83q.47,3.44,1.07,6.17a6.2,6.2,0,0,0,1.54.36,21.42,21.42,0,0,0,4.51.36,22.5,22.5,0,0,0,4.51-.36,6.24,6.24,0,0,0,1.54-.36q.59-2.73,1.07-6.17.36-2.85.71-6.83t.36-8.61q0-4.63-.36-8.55t-.71-6.89q-.47-3.32-1.07-6.17-.71-.12-1.66-.36t-2-.24a23.76,23.76,0,0,0-2.43-.12,24.62,24.62,0,0,0-2.61.12l-1.9.24q-1,.24-1.54.36-.6,2.85-1.07,6.17-.47,3-.77,6.89T323.52,50Z"/><path class="cls-1" d="M403.54,90h4.75q3.92,0,4.93-.77a3.17,3.17,0,0,0,1-2.67V84.77H383.72a44.17,44.17,0,0,1-9.62-.89,15.4,15.4,0,0,1-6.23-2.73,10.19,10.19,0,0,1-3.33-4.75,21.25,21.25,0,0,1-1-6.95,15.45,15.45,0,0,1,.83-5.34,13.32,13.32,0,0,1,2.08-3.8,11.51,11.51,0,0,1,2.73-2.49A14.33,14.33,0,0,1,372,56.4a12.12,12.12,0,0,1-5.4-5.88,24.08,24.08,0,0,1-1.6-9.44,24.77,24.77,0,0,1,1.37-8.73,12.3,12.3,0,0,1,4.45-5.82,21,21,0,0,1,8.07-3.21,63,63,0,0,1,12.23-1h14.25a18.35,18.35,0,0,0,4.69-.47,4.87,4.87,0,0,0,2.55-1.48,4.71,4.71,0,0,0,1-2.49,31,31,0,0,0,.18-3.62h6.41q0,6.41-2,9.26a10.26,10.26,0,0,1-5.82,3.92q4.87,4.39,4.87,13.65a24.7,24.7,0,0,1-1.37,8.79,12.34,12.34,0,0,1-4.45,5.76,21,21,0,0,1-8.07,3.21,62.82,62.82,0,0,1-12.23,1,64.15,64.15,0,0,1-12.82-1.07,18.27,18.27,0,0,0-2.91,1,13.36,13.36,0,0,0-2.79,1.66,9.07,9.07,0,0,0-2.14,2.32,5.41,5.41,0,0,0-.83,3H404q9.85,0,14,3.62t4.1,11.22a31.25,31.25,0,0,1-.59,6.53,10.38,10.38,0,0,1-2.08,4.51,8.92,8.92,0,0,1-4.21,2.67,23,23,0,0,1-7,.89h-4.63ZM384.43,41.08q0,2.85.24,5.22a37.35,37.35,0,0,0,.59,4,36.54,36.54,0,0,0,.83,3.68l1.31.24a11.53,11.53,0,0,0,1.48.18q.89.06,2.08.06t2.14-.06a11.84,11.84,0,0,0,1.54-.18l1.31-.24q.36-1.66.83-3.68.24-1.66.53-4a45.59,45.59,0,0,0,0-10.39q-.3-2.43-.53-4.1-.48-2-.83-3.68l-1.42-.24a12.46,12.46,0,0,0-1.54-.18q-1-.06-2-.06t-2.08.06a12.18,12.18,0,0,0-1.48.18l-1.31.24a36.74,36.74,0,0,0-.83,3.68,37.37,37.37,0,0,0-.59,4.1Q384.43,38.35,384.43,41.08Z"/><path class="cls-1" d="M423.25,23.15h24.81L461.72,57.7l12.35-28.49h-9.5V23.15h24.69v6.06H481L457.21,84.77a34.71,34.71,0,0,1-2.32,4.69A16.14,16.14,0,0,1,452,93a10.8,10.8,0,0,1-3.8,2.26A16,16,0,0,1,443,96a10.58,10.58,0,0,1-5.28-1.13,8.86,8.86,0,0,1-3-2.73,8.59,8.59,0,0,1-1.37-3.32,18,18,0,0,1-.3-3V82.28h6.29V86a5.28,5.28,0,0,0,.77,2.73A3.09,3.09,0,0,0,443,90a5.83,5.83,0,0,0,4.93-2.26,24.6,24.6,0,0,0,3-5.34l1.31-3.09-23-50.1h-5.94Z"/></svg>